<?xml version="1.0" encoding="utf-8"?>
<!-- Generator: Adobe Illustrator 23.0.2, SVG Export Plug-In . SVG Version: 6.00 Build 0)  -->
<svg version="1.1" id="Layer_1" xmlns="http://www.w3.org/2000/svg" xmlns:xlink="http://www.w3.org/1999/xlink" x="0px" y="0px"
	 viewBox="0 0 553.53 132.68" style="enable-background:new 0 0 553.53 132.68;" xml:space="preserve">
<style type="text/css">
	.st0{fill:none;stroke:#00AEEF;stroke-width:3;stroke-miterlimit:10;}
	.st1{fill:#030021;}
	.st2{fill:url(#SVGID_1_);}
	.st3{fill:url(#SVGID_2_);}
	.st4{fill:url(#SVGID_3_);}
	.st5{fill:url(#SVGID_4_);}
	.st6{fill:#CEA357;}
	.st7{fill:none;stroke:#231F20;stroke-width:3;stroke-miterlimit:10;}
	.st8{fill:url(#SVGID_5_);}
	.st9{fill:url(#SVGID_6_);}
	.st10{fill:url(#SVGID_7_);}
	.st11{fill:url(#SVGID_8_);}
	.st12{fill:url(#SVGID_9_);}
	.st13{fill:url(#SVGID_10_);}
	.st14{fill:url(#SVGID_11_);}
	.st15{fill:url(#SVGID_12_);}
	.st16{fill:url(#SVGID_13_);}
	.st17{fill:url(#SVGID_14_);}
	.st18{fill:url(#SVGID_15_);}
	.st19{fill:url(#SVGID_16_);}
	.st20{fill:url(#SVGID_17_);}
	.st21{fill:url(#SVGID_18_);}
	.st22{fill:url(#SVGID_19_);}
	.st23{fill:url(#SVGID_20_);}
	.st24{fill:url(#SVGID_21_);}
	.st25{fill:url(#SVGID_22_);}
	.st26{fill:url(#SVGID_23_);}
	.st27{fill:url(#SVGID_24_);}
	.st28{fill:url(#SVGID_25_);}
	.st29{fill:url(#SVGID_26_);}
	.st30{fill:url(#SVGID_27_);}
	.st31{fill:url(#SVGID_28_);}
	.st32{fill:#FFFFFF;}
	.st33{fill:url(#SVGID_29_);}
	.st34{fill:url(#SVGID_30_);}
	.st35{fill:url(#SVGID_31_);}
	.st36{fill:url(#SVGID_32_);}
	.st37{fill:url(#SVGID_33_);}
	.st38{fill:#61FBF0;}
	.st39{fill:url(#SVGID_34_);}
	.st40{fill:url(#SVGID_35_);}
	.st41{fill:url(#SVGID_36_);}
	.st42{fill:url(#SVGID_37_);}
	.st43{fill:url(#SVGID_38_);}
	.st44{fill:url(#SVGID_39_);}
	.st45{fill:url(#SVGID_40_);}
	.st46{fill:url(#SVGID_41_);}
	.st47{fill:url(#SVGID_42_);}
	.st48{fill:url(#SVGID_43_);}
	.st49{fill:url(#SVGID_44_);}
	.st50{fill:url(#SVGID_45_);}
	.st51{fill:url(#SVGID_46_);}
	.st52{fill:url(#SVGID_47_);}
	.st53{fill:url(#SVGID_48_);}
	.st54{fill:url(#SVGID_49_);}
	.st55{fill:url(#SVGID_50_);}
	.st56{fill:#00AEEF;}
	.st57{fill:url(#SVGID_51_);}
	.st58{fill:url(#SVGID_52_);}
	.st59{fill:url(#SVGID_53_);}
	.st60{fill:url(#SVGID_54_);}
	.st61{fill:#E5C820;}
	.st62{fill:url(#SVGID_55_);}
	.st63{fill:url(#SVGID_56_);}
	.st64{fill:url(#SVGID_57_);}
	.st65{fill:url(#SVGID_58_);}
	.st66{fill:url(#SVGID_59_);}
	.st67{fill:url(#SVGID_60_);}
	.st68{fill:url(#SVGID_61_);}
	.st69{fill:url(#SVGID_62_);}
	.st70{fill:url(#SVGID_63_);}
	.st71{fill:url(#SVGID_64_);}
	.st72{fill:url(#SVGID_65_);}
	.st73{fill:url(#SVGID_66_);}
	.st74{fill:url(#SVGID_67_);}
	.st75{fill:url(#SVGID_68_);}
	.st76{fill:url(#SVGID_69_);}
	.st77{fill:url(#SVGID_70_);}
	.st78{fill:url(#SVGID_71_);}
	.st79{fill:url(#SVGID_72_);}
	.st80{fill:url(#SVGID_73_);}
	.st81{fill:url(#SVGID_74_);}
	.st82{fill:url(#SVGID_75_);}
	.st83{fill:url(#SVGID_76_);}
	.st84{fill:url(#SVGID_77_);}
	.st85{fill:url(#SVGID_78_);}
	.st86{fill:url(#SVGID_79_);}
	.st87{fill:url(#SVGID_80_);}
	.st88{fill:url(#SVGID_81_);}
	.st89{fill:url(#SVGID_82_);}
	.st90{fill:url(#SVGID_83_);}
	.st91{fill:url(#SVGID_84_);}
	.st92{fill:url(#SVGID_85_);}
	.st93{fill:url(#SVGID_86_);}
	.st94{fill:url(#SVGID_87_);}
	.st95{fill:url(#SVGID_88_);}
	.st96{fill:url(#SVGID_89_);}
	.st97{fill:url(#SVGID_90_);}
	.st98{fill:url(#SVGID_91_);}
	.st99{fill:url(#SVGID_92_);}
	.st100{fill:url(#SVGID_93_);}
	.st101{fill:url(#SVGID_94_);}
	.st102{fill:url(#SVGID_95_);}
	.st103{fill:url(#SVGID_96_);}
	.st104{fill:url(#SVGID_97_);}
	.st105{fill:#7CC1AF;}
	.st106{opacity:0.71;fill:url(#SVGID_98_);}
	.st107{opacity:0.71;fill:url(#SVGID_99_);}
	.st108{fill:#5FEB88;}
	.st109{fill:#22A8FF;}
	.st110{fill:url(#SVGID_100_);}
	.st111{fill:url(#SVGID_101_);}
	.st112{fill:url(#SVGID_102_);}
	.st113{fill:url(#SVGID_103_);}
	.st114{fill:url(#SVGID_104_);}
	.st115{fill:url(#SVGID_105_);}
	.st116{fill:url(#SVGID_106_);}
	.st117{fill:url(#SVGID_107_);}
	.st118{fill:url(#SVGID_108_);}
	.st119{fill:url(#SVGID_109_);}
	.st120{fill:url(#SVGID_110_);}
	.st121{fill:url(#SVGID_111_);}
	.st122{fill:url(#SVGID_112_);}
	.st123{fill:url(#SVGID_113_);}
	.st124{fill:url(#SVGID_114_);}
	.st125{fill:url(#SVGID_115_);}
	.st126{fill:url(#SVGID_116_);}
	.st127{fill:url(#SVGID_117_);}
	.st128{fill:url(#SVGID_118_);}
	.st129{fill:url(#SVGID_119_);}
	.st130{fill:url(#SVGID_120_);}
	.st131{fill:url(#SVGID_121_);}
	.st132{fill:url(#SVGID_122_);}
	.st133{fill:url(#SVGID_123_);}
	.st134{fill:url(#SVGID_124_);}
	.st135{fill:#12FFF1;}
	.st136{fill:url(#SVGID_125_);}
	.st137{fill:url(#SVGID_126_);}
	.st138{fill:url(#SVGID_127_);}
	.st139{fill:url(#SVGID_128_);}
	.st140{fill:url(#SVGID_129_);}
	.st141{fill:url(#SVGID_130_);}
	.st142{fill:#2FF77A;}
	.st143{fill:#005EB8;}
	.st144{fill:#44AA28;}
	.st145{fill:url(#SVGID_131_);}
	.st146{fill:url(#SVGID_132_);}
	.st147{fill:url(#SVGID_133_);}
	.st148{fill:url(#SVGID_134_);}
	.st149{fill:url(#SVGID_135_);}
	.st150{fill:url(#SVGID_136_);}
	.st151{fill:url(#SVGID_137_);}
	.st152{fill:url(#SVGID_138_);}
	.st153{fill:url(#SVGID_139_);}
	.st154{fill:url(#SVGID_140_);}
	.st155{fill:url(#SVGID_141_);}
	.st156{fill:url(#SVGID_142_);}
	.st157{fill:url(#SVGID_143_);}
	.st158{fill:url(#SVGID_144_);}
	.st159{fill:url(#SVGID_145_);}
	.st160{fill:url(#SVGID_146_);}
	.st161{fill:url(#SVGID_147_);}
	.st162{fill:url(#SVGID_148_);}
	.st163{fill:#E0AA53;}
	.st164{fill:url(#SVGID_149_);}
	.st165{fill:url(#SVGID_150_);}
	.st166{fill:#F49600;}
	.st167{fill:#AE00FF;}
</style>
<g>
	<g>
		<polygon class="st32" points="203.96,15.29 203.96,117 119.73,117 126.04,100.72 186.92,100.72 186.92,75.77 135.81,75.77 
			142.58,59.43 186.92,59.43 186.92,31.6 107.09,31.6 109.65,15.29 		"/>
		<rect x="212.84" y="35.68" class="st32" width="16.77" height="60.94"/>
		<polygon class="st32" points="17.04,31.6 17.04,59.49 63.41,59.49 56.43,75.77 17.04,75.77 17.04,117 0,117 0,15.29 82.38,15.29 
			75.38,31.6 		"/>
		<polygon class="st166" points="123.91,75.77 130.68,59.43 91.61,59.43 91.74,59.28 91.61,59.28 100.91,0 68.4,75.77 107.49,75.77 
			107.43,75.86 107.49,75.86 101.85,132.68 		"/>
	</g>
	<g>
		<g>
			<polygon class="st32" points="253.58,58.37 260.91,58.37 260.91,44.07 276.28,44.07 276.28,37.22 260.91,37.22 260.91,30.25 
				280.73,30.25 280.73,23.45 253.58,23.45 			"/>
			<polygon class="st32" points="316.91,23.45 310.08,23.45 293.81,58.37 302.18,58.37 313.52,33.21 324.81,58.37 333.18,58.37 
				317.06,23.77 			"/>
			<polygon class="st32" points="386.07,48.37 377.71,23.45 370.63,23.45 362.27,48.37 353.39,23.45 345.55,23.45 358.27,58.37 
				365.72,58.37 374.17,33.8 382.62,58.37 390.07,58.37 402.79,23.45 394.95,23.45 			"/>
			<rect x="423.2" y="23.45" class="st32" width="7.33" height="34.92"/>
			<polygon class="st32" points="458.35,23.45 448.3,23.45 433.02,40.58 448.86,58.19 449.02,58.37 459.08,58.37 442.52,40.57 			
				"/>
			<rect x="487.91" y="37.22" class="st32" width="13.32" height="6.85"/>
			<polygon class="st32" points="478.53,58.37 505.68,58.37 505.68,51.28 485.87,51.28 485.87,30.25 505.68,30.25 505.68,23.45 
				478.53,23.45 			"/>
			<path class="st32" d="M551.61,41.96c-2.31-2.79-5.75-3.88-8.8-4.58c-0.45-0.11-0.91-0.22-1.39-0.33
				c-2.54-0.6-5.42-1.27-6.97-2.47c-1.25-0.95-1.15-2.47-0.54-3.47c1.22-1.93,4.22-1.77,6.53-1.3c4.14,0.83,6.46,2.98,7.22,3.68
				l0.36,0.33l5.43-4.69l-0.36-0.42c-0.04-0.05-1.03-1.18-2.96-2.46c-3.16-2.16-7.04-3.34-10.94-3.34c-0.08,0-0.17,0-0.25,0
				c-2.46,0.04-6.18,0.11-9.38,2.79c-3.73,3.11-4.72,8.11-2.39,12.15c2.38,4.1,7.24,5.08,11.53,5.96l1.49,0.31
				c1.55,0.32,4.13,0.87,5.12,2.39c0.42,0.65,0.52,1.42,0.32,2.34c-0.64,2.61-4.52,3.44-7.91,2.74l0,0
				c-3.99-0.79-5.83-2.34-8.04-5.12l-0.35-0.45l-5.57,4.78l0.39,0.65c2.53,3.93,7.26,6.66,12.67,7.29c0.8,0.09,1.59,0.14,2.37,0.14
				c4.51,0,8.69-1.51,11.51-4.23C554.8,50.74,553.84,44.67,551.61,41.96z"/>
		</g>
		<g>
			<rect x="262.95" y="88.1" class="st32" width="13.31" height="6.84"/>
			<polygon class="st32" points="253.58,109.23 280.71,109.23 280.71,102.15 260.91,102.15 260.91,81.13 280.71,81.13 280.71,74.33 
				253.58,74.33 			"/>
			<polygon class="st32" points="328.55,97.7 310.63,74.33 303.34,74.33 303.34,109.23 310.67,109.23 310.67,85.62 328.82,109.23 
				335.92,109.23 335.92,74.33 328.55,74.33 			"/>
			<polygon class="st32" points="360.97,109.23 388.09,109.23 388.09,102.15 368.29,102.15 368.29,81.13 388.09,81.13 388.09,74.33 
				360.97,74.33 			"/>
			<rect x="370.34" y="88.1" class="st32" width="13.31" height="6.84"/>
			<path class="st32" d="M438.81,86.57c0-7.43-5.43-12.24-13.83-12.24h-13.78v34.9h7.33V98.85h4.69l8.45,10.38h12.04l-12.39-11.48
				C436.1,95.93,438.81,91.89,438.81,86.57z M418.53,81.13h3.8c7.7,0,9.16,1.91,9.16,5.44s-1.46,5.44-9.16,5.44h-3.8V81.13z"/>
			<path class="st32" d="M480.42,95.18h6.76v5.64c-1.9,1.32-4.74,2.1-7.66,2.1c-6.73,0-11.43-4.58-11.43-11.14
				c0-6.56,4.7-11.13,11.43-11.13c3.78,0,7.41,1.53,9.48,4l0.38,0.46l5.11-4.99l-0.37-0.39c-3.51-3.71-8.96-5.92-14.6-5.92
				c-10.69,0-18.75,7.73-18.75,17.98c0,10.25,8.06,17.98,18.75,17.98c5.75,0,11.44-2.27,14.84-5.92l0.15-0.16v-15.3h-14.09V95.18z"
				/>
			<polygon class="st32" points="544.76,74.33 533.86,91.9 522.92,74.33 514.26,74.33 530.18,98.85 530.18,109.23 537.5,109.23 
				537.5,98.85 553.42,74.33 			"/>
		</g>
	</g>
</g>
</svg>
